<?xml version="1.0" encoding="utf-8"?>
<!-- Generator: Adobe Illustrator 24.2.1, SVG Export Plug-In . SVG Version: 6.00 Build 0)  -->
<svg version="1.1" id="Layer_1" xmlns="http://www.w3.org/2000/svg" xmlns:xlink="http://www.w3.org/1999/xlink" x="0px" y="0px"
	 viewBox="0 0 128 128" style="enable-background:new 0 0 128 128;" xml:space="preserve">
<style type="text/css">
	.st0{fill:#FF6C6C;}
	.st1{fill:#515151;}
</style>
<g>
	<path class="st0" d="M113.1,60.4c0,0.9,0,1.9-0.1,2.8c-0.1,1.5-0.2,3-0.4,4.4h-75v45.8c-3.4-1.2-6.6-2.7-9.6-4.5
		C11.5,99,0.5,81,0.5,60.4c0-31.1,25.2-56.3,56.3-56.3C87.9,4.1,113.1,29.3,113.1,60.4z"/>
	<polygon class="st1" points="128,76.8 110.3,76.8 110.3,123.9 80.9,123.9 80.9,88.6 57.4,88.6 57.4,123.9 28,123.9 28,76.8 
		10.3,76.8 69.2,23.8 113,63.3 	"/>
</g>
</svg>
