<?xml version="1.0" encoding="utf-8"?>
<!-- Generator: Adobe Illustrator 25.3.1, SVG Export Plug-In . SVG Version: 6.00 Build 0)  -->
<svg version="1.1" id="Layer_1" xmlns="http://www.w3.org/2000/svg" xmlns:xlink="http://www.w3.org/1999/xlink" x="0px" y="0px"
	 viewBox="0 0 128 128" style="enable-background:new 0 0 128 128;" xml:space="preserve">
<style type="text/css">
	.st0{fill:#7F7F7F;}
</style>
<path class="st0" d="M114.9,52.4c0,3-0.3,6-0.8,8.9l-21-19l-7.4-6.7l-7.4,6.7L46,71.4L26.7,88.8c-0.5,0.1-1.1,0.1-1.6,0.2
	c-9.3-9.5-15-22.4-15-36.7C10.1,23.5,33.6,0,62.5,0S114.9,23.5,114.9,52.4z"/>
<g>
	<path class="st0" d="M128,128H0v-23.2c12.3-2.9,25-5,37.9-6.2c8.3-0.8,16.7-1.2,25.2-1.2V79.6h-9.7l32.4-29.2l24,21.8l0.9,0.8
		l7.4,6.6h-9.8V101c6.7,1.1,13.2,2.3,19.7,3.9V128z"/>
</g>
</svg>
